<svg width="24" height="24" viewBox="0 0 24 24" fill="none" xmlns="http://www.w3.org/2000/svg">
<g clip-path="url(#clip0_48_19)">
<path d="M23.9764 7.05607C23.9202 5.78085 23.714 4.90416 23.4186 4.14449C23.1138 3.33812 22.645 2.61617 22.0307 2.01602C21.4306 1.40652 20.7039 0.932921 19.9069 0.632936C19.1428 0.337529 18.2707 0.131312 16.9955 0.0750879C15.7107 0.0141019 15.3029 0 12.0444 0C8.78598 0 8.37813 0.0141019 7.09816 0.0703262C5.82294 0.126551 4.94625 0.332951 4.18676 0.628174C3.38021 0.932922 2.65827 1.40176 2.05812 2.01602C1.44862 2.61617 0.975202 3.34288 0.675034 4.13991C0.379628 4.90416 0.173411 5.77609 0.117187 7.0513C0.0562008 8.33604 0.042099 8.7439 0.042099 12.0023C0.042099 15.2608 0.0562008 15.6686 0.112425 16.9486C0.168649 18.2238 0.375049 19.1005 0.670456 19.8602C0.975202 20.6666 1.44862 21.3885 2.05812 21.9887C2.65827 22.5982 3.38497 23.0718 4.182 23.3718C4.94625 23.6672 5.81818 23.8734 7.09358 23.9296C8.37337 23.986 8.7814 23.9999 12.0398 23.9999C15.2983 23.9999 15.7061 23.986 16.9861 23.9296C18.2613 23.8734 19.138 23.6672 19.8975 23.3718C21.5104 22.7482 22.7856 21.4729 23.4092 19.8602C23.7045 19.096 23.9109 18.2238 23.9671 16.9486C24.0233 15.6686 24.0374 15.2608 24.0374 12.0023C24.0374 8.7439 24.0327 8.33604 23.9764 7.05607ZM21.8152 16.8549C21.7635 18.027 21.5667 18.6599 21.4026 19.0819C20.9993 20.1274 20.1695 20.9572 19.1239 21.3605C18.702 21.5246 18.0645 21.7215 16.8969 21.7729C15.6311 21.8293 15.2514 21.8433 12.0492 21.8433C8.84697 21.8433 8.46256 21.8293 7.20126 21.7729C6.02916 21.7215 5.39623 21.5246 4.97427 21.3605C4.45397 21.1682 3.98036 20.8634 3.59595 20.4649C3.19744 20.0758 2.89269 19.6069 2.70039 19.0866C2.5363 18.6647 2.33942 18.027 2.28796 16.8596C2.23155 15.5937 2.21763 15.2139 2.21763 12.0117C2.21763 8.80946 2.23155 8.42505 2.28796 7.16394C2.33942 5.99183 2.5363 5.3589 2.70039 4.93694C2.89269 4.41645 3.19744 3.94303 3.60071 3.55843C3.9897 3.15992 4.45854 2.85517 4.97903 2.66306C5.40099 2.49896 6.03868 2.30209 7.20603 2.25044C8.4719 2.19422 8.85173 2.18011 12.0538 2.18011C15.2607 2.18011 15.6404 2.19422 16.9017 2.25044C18.0738 2.30209 18.7067 2.49896 19.1287 2.66306C19.649 2.85517 20.1226 3.15992 20.507 3.55843C20.9055 3.94761 21.2103 4.41645 21.4026 4.93694C21.5667 5.3589 21.7635 5.99641 21.8152 7.16394C21.8714 8.42981 21.8855 8.80946 21.8855 12.0117C21.8855 15.2139 21.8714 15.589 21.8152 16.8549Z" fill="black"/>
<path d="M12.0445 5.83691C8.64086 5.83691 5.87927 8.59832 5.87927 12.0022C5.87927 15.406 8.64086 18.1674 12.0445 18.1674C15.4484 18.1674 18.2098 15.406 18.2098 12.0022C18.2098 8.59832 15.4484 5.83691 12.0445 5.83691ZM12.0445 16.0014C9.8364 16.0014 8.04528 14.2105 8.04528 12.0022C8.04528 9.79386 9.8364 8.00293 12.0445 8.00293C14.2529 8.00293 16.0438 9.79386 16.0438 12.0022C16.0438 14.2105 14.2529 16.0014 12.0445 16.0014Z" fill="black"/>
<path d="M19.893 5.59361C19.893 6.38844 19.2485 7.03292 18.4535 7.03292C17.6587 7.03292 17.0142 6.38844 17.0142 5.59361C17.0142 4.79859 17.6587 4.1543 18.4535 4.1543C19.2485 4.1543 19.893 4.79859 19.893 5.59361Z" fill="black"/>
</g>
<defs>
<clipPath id="clip0_48_19">
<rect width="24" height="24" fill="white"/>
</clipPath>
</defs>
</svg>
