<svg width="21" height="22" viewBox="0 0 21 22" fill="none" xmlns="http://www.w3.org/2000/svg">
<path d="M9.94044 0.0121868C4.37505 0.277179 -0.0168348 4.91208 4.85136e-05 10.4838C0.00518911 12.1808 0.414874 13.7825 1.13758 15.1978L0.027969 20.584C-0.032055 20.8753 0.23072 21.1304 0.520156 21.0619L5.79798 19.8115C7.15394 20.4869 8.67697 20.877 10.2888 20.9016C15.9772 20.9885 20.7203 16.4718 20.8976 10.7856C21.0877 4.69028 16.057 -0.279113 9.94044 0.0121868ZM16.238 16.2381C14.6924 17.7837 12.6373 18.6349 10.4514 18.6349C9.17152 18.6349 7.94615 18.3478 6.80922 17.7815L6.07421 17.4153L2.83836 18.182L3.51949 14.8755L3.15738 14.1664C2.56717 13.0105 2.26791 11.7606 2.26791 10.4514C2.26791 8.26551 3.11913 6.21048 4.66478 4.66478C6.19663 3.13293 8.28522 2.26785 10.4516 2.26785C12.6374 2.2679 14.6924 3.11912 16.2381 4.66473C17.7837 6.21038 18.6349 8.26541 18.635 10.4513C18.6349 12.6177 17.7699 14.7063 16.238 16.2381Z" fill="black"/>
<path d="M15.5238 12.7175L13.4993 12.1362C13.2332 12.0598 12.9466 12.1353 12.7526 12.3329L12.2576 12.8372C12.0488 13.0499 11.7321 13.1183 11.4558 13.0065C10.4981 12.6189 8.48362 10.8278 7.96916 9.93186C7.82074 9.67342 7.84528 9.35032 8.02752 9.1145L8.45973 8.55534C8.62907 8.33626 8.6648 8.04204 8.55282 7.78879L7.70109 5.86243C7.49708 5.40104 6.90747 5.26672 6.52228 5.5925C5.95727 6.07037 5.28688 6.79655 5.20538 7.60105C5.0617 9.01945 5.67 10.8075 7.97032 12.9544C10.6278 15.4348 12.7559 15.7624 14.1415 15.4268C14.9274 15.2364 15.5555 14.4733 15.9518 13.8485C16.2221 13.4225 16.0087 12.8567 15.5238 12.7175Z" fill="black"/>
</svg>
