<svg version="1.0" xmlns="http://www.w3.org/2000/svg"
 width="445.000000pt" height="646.000000pt" viewBox="0 0 445.000000 646.000000"
 preserveAspectRatio="xMidYMid meet">
<g transform="translate(0.000000,646.000000) scale(0.100000,-0.100000)" stroke="none">
<path fill="#392cb5" d="M2065 6354 c-16 -2 -82 -11 -145 -20 -463 -63 -920 -300 -1242 -643
-352 -376 -550 -846 -575 -1366 -14 -303 107 -729 373 -1312 149 -329 118
-274 1064 -1878 136 -231 328 -556 426 -723 137 -233 181 -299 189 -290 7 7
41 60 77 118 70 115 538 866 1138 1830 438 702 524 850 655 1115 156 318 251
581 297 823 43 222 25 514 -46 779 -155 582 -555 1072 -1094 1342 -296 148
-583 219 -917 226 -93 2 -183 1 -200 -1z m447 -872 c352 -91 645 -328 797
-647 167 -348 163 -748 -11 -1088 -262 -512 -839 -769 -1397 -621 -419 110
-758 451 -864 870 -59 233 -45 520 35 724 153 391 444 655 838 760 119 32 185
39 340 35 121 -3 165 -8 262 -33z"/>
</g>
</svg>
